PathFileType	4	(X/Y/Z)	 s01c0301.trc
DataRate	CameraRate	NumFrames	NumMarkers	Units	OrigDataRate	OrigDataStartFrame	OrigNumFrames
200	200	6	48	mm	200	1	2000
Frame#	Time	racr			lacr			c7			jug			rlel			rdr			llel			ldr			s2			lic			ric			lasi			rasi			rpsi			lpsi			rgt			lgt			rth1			rth2			rth3			rth4			rlfc			rsh1			rsh2			rsh3			rsh4			rlmal			rmmal			rcal			rtoe			rmt5			lth1			lth2			lth4			lth3			llfc			lsh1			lsh2			lsh3			lsh4			llmal			lmmal			lcal			ltoe			lmt5			SBIKE			LBIKE			RBIKE			
		X1	Y1	Z1	X2	Y2	Z2	X3	Y3	Z3	X4	Y4	Z4	X5	Y5	Z5	X6	Y6	Z6	X7	Y7	Z7	X8	Y8	Z8	X9	Y9	Z9	X10	Y10	Z10	X11	Y11	Z11	X12	Y12	Z12	X13	Y13	Z13	X14	Y14	Z14	X15	Y15	Z15	X16	Y16	Z16	X17	Y17	Z17	X18	Y18	Z18	X19	Y19	Z19	X20	Y20	Z20	X21	Y21	Z21	X22	Y22	Z22	X23	Y23	Z23	X24	Y24	Z24	X25	Y25	Z25	X26	Y26	Z26	X27	Y27	Z27	X28	Y28	Z28	X29	Y29	Z29	X30	Y30	Z30	X31	Y31	Z31	X32	Y32	Z32	X33	Y33	Z33	X34	Y34	Z34	X35	Y35	Z35	X36	Y36	Z36	X37	Y37	Z37	X38	Y38	Z38	X39	Y39	Z39	X40	Y40	Z40	X41	Y41	Z41	X42	Y42	Z42	X43	Y43	Z43	X44	Y44	Z44	X45	Y45	Z45	X46	Y46	Z46	X47	Y47	Z47	X48	Y48	Z48	
1	0.0050	504.812122	1345.756971	-114.757581	511.942151	1348.446960	-394.738797	454.211777	1385.558539	-246.299764	469.176103	1225.031977	-251.264587	589.796806	1072.760088	-49.088347	728.387721	847.304020	-84.866062	596.331051	1075.756683	-454.624187	NaN	NaN	NaN	-65.480982	1155.491793	-243.366017	112.418508	1156.804351	-407.020633	102.018220	1124.094651	-93.106439	99.248931	1100.912105	-397.711170	114.135661	1075.097875	-119.243088	-26.565727	1182.030022	-190.021214	-32.244461	1194.386248	-295.507505	23.405071	1015.213125	-66.395441	32.594955	1046.962592	-459.191459	94.962277	895.513508	-48.778247	148.380707	832.129508	-53.637799	202.129267	760.065032	-66.282325	192.210741	865.876593	-64.182744	242.916997	662.451378	-88.532019	161.279348	575.425089	-60.077612	115.492053	504.243281	-65.544694	59.507683	435.787937	-80.708299	154.060393	478.397526	-103.804542	-17.717420	333.767154	-102.808942	32.676298	343.433946	-179.574371	-68.509990	307.751583	-159.060328	193.717573	245.362353	-132.249870	82.847792	233.382684	-68.358857	128.287655	964.194525	-459.557514	216.272639	949.302798	-462.690028	226.872441	1002.786444	-453.657559	297.987731	926.835202	-445.577174	395.831974	862.358408	-419.438248	328.450910	770.331600	-443.148932	300.863543	688.184633	-437.356480	271.722684	608.377569	-421.144497	355.584742	672.240271	-412.960614	235.981365	484.976719	-403.086388	264.833157	497.416080	-319.738196	190.126611	435.553021	-365.671283	465.347760	468.347723	-368.252408	367.901240	428.758066	-437.210516	-224.001184	893.218053	-249.653882	-11.902229	84.951758	-453.924759	-20.335459	81.030685	-53.546289	
2	0.0100	504.865783	1345.750423	-114.832639	511.976644	1348.469806	-394.763609	454.211331	1385.557909	-246.296038	469.213980	1225.044838	-251.295285	589.824910	1072.785141	-49.112865	728.393520	847.305483	-84.889670	596.345773	1075.748563	-454.645847	NaN	NaN	NaN	-65.468795	1155.493755	-243.379676	112.491800	1156.785623	-407.011399	102.034556	1124.086843	-93.120899	99.242520	1100.890546	-397.712522	114.152682	1075.079482	-119.262234	-26.565039	1182.027650	-190.024228	-32.207137	1194.380086	-295.550226	23.443638	1015.189642	-66.409860	32.609721	1046.953871	-459.189842	95.005185	895.529569	-48.816570	148.404712	832.143043	-53.655471	202.158422	760.075181	-66.292772	192.239520	865.883700	-64.209486	242.954522	662.474200	-88.535804	161.316514	575.435847	-60.084969	115.498421	504.255787	-65.545634	59.505190	435.828318	-80.682226	154.078352	478.417662	-103.831892	-17.704804	333.789139	-102.822030	32.613683	343.424168	-179.594360	-68.497766	307.785105	-159.062054	193.687481	245.397270	-132.226019	82.838252	233.413571	-68.353941	128.299094	964.209520	-459.572620	216.281487	949.331048	-462.732101	226.702014	1002.619309	-453.521732	297.978372	926.848043	-445.597952	395.839565	862.370204	-419.463816	328.486730	770.333452	-443.133063	300.914976	688.207943	-437.347528	271.769380	608.387094	-421.132251	355.640577	672.262683	-412.963283	236.035628	484.982198	-403.087461	264.860029	497.413761	-319.738514	190.168006	435.598306	-365.663229	465.380187	468.304222	-368.247909	367.955362	428.739027	-437.209946	-223.990944	893.218882	-249.674908	-11.895654	84.946548	-453.911840	-20.318128	81.005596	-53.545955	
3	0.0150	504.910383	1345.759891	-114.868626	512.013077	1348.486722	-394.755222	454.222290	1385.569354	-246.331901	469.272703	1225.053043	-251.336678	589.851595	1072.796263	-49.150992	728.385305	847.307067	-84.878655	596.370743	1075.740753	-454.663757	NaN	NaN	NaN	-65.456766	1155.488237	-243.382426	112.445472	1156.742238	-406.965567	102.040482	1124.085485	-93.128068	99.240592	1100.873374	-397.690750	114.160604	1075.063962	-119.250219	-26.552457	1182.023997	-190.025081	-32.248250	1194.390537	-295.528445	23.442274	1015.185456	-66.408873	32.620252	1046.953091	-459.177395	95.027501	895.534938	-48.828375	148.423899	832.157555	-53.649305	202.201953	760.082134	-66.294370	192.259413	865.902697	-64.223572	242.987965	662.490939	-88.538938	161.351866	575.463887	-60.090760	115.510448	504.280607	-65.556859	59.531673	435.841590	-80.709647	154.091853	478.449271	-103.833460	-17.714790	333.843351	-102.835258	32.671378	343.490101	-179.610794	-68.510518	307.849226	-159.060905	193.685938	245.404646	-132.226640	82.829406	233.444713	-68.360874	128.299031	964.210243	-459.571482	216.272289	949.339334	-462.738980	226.700334	1002.640608	-453.544218	297.995321	926.874724	-445.632709	395.874389	862.398032	-419.475259	328.526551	770.359307	-443.110029	300.944844	688.229203	-437.344837	271.829898	608.413427	-421.132098	355.691891	672.278743	-412.958925	236.088361	485.015036	-403.094191	264.945726	497.435457	-319.728147	190.198262	435.648409	-365.643267	465.433340	468.241711	-368.270311	367.980739	428.721109	-437.210629	-223.989707	893.215187	-249.664841	-11.894520	84.949410	-453.924066	-20.319515	81.021044	-53.547185	
4	0.0200	504.921471	1345.773590	-114.912884	513.217470	1348.063695	-395.414286	454.137960	1385.711712	-246.257802	469.280095	1225.082919	-251.348452	589.894537	1072.811720	-49.220312	728.452212	847.395880	-84.805377	596.373010	1075.735209	-454.677780	NaN	NaN	NaN	-65.463976	1155.491110	-243.373435	112.798141	1156.771107	-407.333889	102.045422	1124.066819	-93.134382	99.237005	1100.870175	-397.686786	114.424597	1075.085223	-119.246381	-27.111421	1182.770127	-189.395998	-32.995383	1194.668660	-295.144959	23.463343	1015.169521	-66.410037	32.696501	1046.889605	-459.210257	94.759847	895.087807	-48.942032	148.465135	832.151570	-53.662151	202.394748	759.976683	-66.412068	192.318182	865.995458	-64.069585	243.016841	662.492096	-88.567955	161.467582	575.470917	-60.096163	115.530699	504.314260	-65.541377	59.540190	435.891460	-80.704793	155.054080	479.221496	-103.818475	-17.711620	333.875367	-102.787738	32.544194	343.504240	-179.679188	-68.918294	308.267786	-158.867944	193.545640	245.450961	-132.134718	82.815620	233.481884	-68.356621	128.303222	964.215775	-459.569427	217.554807	949.630765	-463.532233	229.283839	1001.394567	-457.067145	297.995426	926.892067	-445.646413	395.887362	862.442816	-419.494286	328.559530	770.388159	-443.100786	301.199142	688.310361	-437.329754	271.900508	608.438887	-421.128568	355.744761	672.295709	-412.960738	236.875194	484.942621	-402.796255	265.067804	497.329644	-319.708902	189.923551	435.973756	-365.565500	465.799198	468.117213	-368.435334	368.368565	428.766133	-437.257115	-224.051769	893.188637	-249.862464	-11.897532	84.940143	-453.930393	-20.323839	80.993325	-53.544161	
5	0.0250	505.160871	1345.847233	-114.934343	515.700730	1348.892603	-395.338672	454.211711	1385.289002	-246.172805	469.353025	1225.066410	-251.383021	589.579193	1072.882308	-48.978951	728.505819	847.311480	-84.860677	596.499833	1075.719787	-454.645919	NaN	NaN	NaN	-65.277533	1155.295283	-243.362685	113.510223	1156.865162	-408.075451	102.010027	1124.006011	-93.162290	98.679069	1100.832073	-397.289169	114.460794	1075.084594	-119.233717	-27.085206	1182.706190	-189.424764	-33.600613	1194.893062	-294.833356	23.368718	1014.970008	-66.317233	32.473456	1047.019238	-459.390784	94.803813	895.087537	-48.987850	148.463400	832.102464	-53.658932	202.425861	759.876725	-66.245943	192.354317	866.000830	-64.065646	243.057763	662.504275	-88.641129	161.502965	575.483163	-60.217726	115.517921	504.342589	-65.657838	59.565562	435.922445	-80.743689	155.120470	479.252671	-103.851263	-17.699600	333.949406	-102.834573	32.539111	343.516698	-179.677552	-68.996800	308.282855	-158.858030	193.515054	245.491857	-132.157700	82.797243	233.513532	-68.418329	128.311239	964.225777	-459.566544	218.891429	950.300494	-463.337347	229.081796	1002.555439	-456.322158	297.961318	926.852730	-445.615016	396.229598	862.526262	-419.428226	328.624076	770.468704	-443.070721	301.334552	688.318603	-437.277132	271.873146	608.341191	-421.081211	355.784303	672.309056	-412.855058	236.767634	485.021547	-402.888701	265.101390	497.396181	-319.729706	189.904310	435.947949	-365.552788	465.738816	467.967925	-368.396253	367.988095	429.537266	-438.085760	-224.152129	893.190608	-249.839970	-11.790500	84.564678	-453.998401	-20.400519	80.959120	-53.491458	
6	0.0300	505.219226	1345.881388	-114.928204	515.701078	1348.907889	-395.367688	454.180568	1385.251736	-246.145465	469.388687	1225.072515	-251.431901	589.656852	1072.878114	-49.054309	728.497250	847.288628	-84.908252	596.314094	1075.639124	-454.681372	NaN	NaN	NaN	-65.393144	1155.533012	-243.508175	114.542132	1157.017332	-409.149340	102.085197	1124.081442	-93.097110	98.995416	1100.755705	-397.306403	114.466847	1075.055824	-119.230734	-27.079698	1182.768718	-189.373111	-34.074728	1195.067860	-294.588236	23.552931	1015.322692	-66.552673	32.548076	1046.976832	-459.215116	94.818504	895.073119	-48.980578	148.560458	832.193085	-53.711572	202.504140	760.052510	-66.678003	192.374089	866.004455	-64.064575	243.121076	662.532016	-88.501023	161.567393	575.529968	-60.051976	115.564083	504.416221	-65.645142	59.559558	435.974882	-80.729769	155.144291	479.288859	-103.831008	-17.696315	333.976154	-102.843566	32.653743	343.597470	-179.609934	-68.965866	308.374653	-158.869291	193.507434	245.521204	-132.160081	82.811658	233.554429	-68.329707	128.322651	964.239912	-459.562924	218.885803	950.333716	-463.334542	229.193229	1001.818149	-456.814946	297.947528	926.891530	-445.624959	396.263480	862.573646	-419.428288	328.704201	770.569110	-443.033476	301.357623	688.422337	-437.293363	272.009972	608.426301	-421.074402	355.836820	672.351593	-412.810397	236.857642	485.112564	-402.884031	265.171258	497.417576	-319.725992	189.987175	436.094958	-365.544414	466.217221	468.130272	-368.440390	370.776243	429.507467	-438.224808	-224.087580	893.160593	-249.855184	-13.114210	85.839441	-454.017642	-20.315014	80.926729	-53.671045	
